<?xml version="1.0" encoding="UTF-8"?>
<svg width="375px" height="375px" viewBox="0 0 375 375" version="1.1" xmlns="http://www.w3.org/2000/svg" xmlns:xlink="http://www.w3.org/1999/xlink">
    <!-- Generator: Sketch 54.1 (76490) - https://sketchapp.com -->
    <title>robot@1x</title>
    <desc>Created with Sketch.</desc>
    <g id="robot" stroke="none" stroke-width="1" fill="none" fill-rule="evenodd">
        <path d="M284,307.615909 L224.180118,307.615909 L224.180118,265.000483 L149.804565,264 L149.804565,306.615425 L91,306.615425 C79.954305,306.615425 71,315.56973 71,326.615425 L71,391 L304,391 L304,327.615909 C304,316.570214 295.045695,307.615909 284,307.615909 Z" id="Path-Copy-2" fill="#10847C" fill-rule="nonzero"></path>
        <polygon id="Path" fill="#0B968C" fill-rule="nonzero" transform="translate(196.147247, 288.474106) scale(-1, 1) translate(-196.147247, -288.474106) " points="167.366909 265.114372 224.927585 265.114372 224.927585 311.83384 167.366909 311.83384"></polygon>
        <path d="M207.939277,265.114372 L150.378601,265.114372 L150.378601,277.110001 L187.838657,277.110001 C197.837309,277.110001 205.939277,285.232949 205.939277,295.250282 L205.939277,311.83384 L224.927585,311.83384 L224.927585,265.114372 L207.939277,265.114372 Z" id="Path" fill="#10847C" fill-rule="nonzero" transform="translate(187.653093, 288.474106) scale(-1, 1) translate(-187.653093, -288.474106) "></path>
        <path d="M284.094831,307.521526 L113.094831,306.710708 C102.049261,306.658334 93.0525988,315.57008 93.0002248,326.615651 C93.0000749,326.647262 93,326.678872 93,326.710483 L93,391 L304,391 L304,327.521301 C304,316.512622 295.103387,307.573724 284.094831,307.521526 Z" id="Path-Copy-2" fill="#09B0A5" fill-rule="nonzero"></path>
        <path d="M143,347 L262,347 C267.522847,347 272,351.477153 272,357 L272,391 L133,391 L133,357 C133,351.477153 137.477153,347 143,347 Z" id="Rectangle" fill="#DAA34C"></path>
        <path d="M163,347 L262,347 C267.522847,347 272,351.477153 272,357 L272,391 L153,391 L153,357 C153,351.477153 157.477153,347 163,347 Z" id="Rectangle" fill="#FFCA5D"></path>
        <g id="Group-3" transform="translate(55.000000, 9.000000)">
            <g id="Group" transform="translate(238.000000, 164.427660) scale(-1, 1) translate(-238.000000, -164.427660) translate(211.000000, 117.927660)">
                <path d="M11.0000002,11 L50.5809129,11 L50.5809129,103.578723 L11.0000002,103.578723 C4.92486786,103.578723 1.49548439e-14,98.6538555 1.42108547e-14,92.5787232 L1.42108547e-14,22.0000002 C1.34668656e-14,15.9248679 4.92486786,11 11.0000002,11 Z" id="Rectangle-Copy" fill="#525252"></path>
                <path d="M31.8921164,11 L53.879668,11 L53.879668,103.578723 L31.8921164,103.578723 C25.816984,103.578723 20.8921162,98.6538555 20.8921162,92.5787232 L20.8921162,22.0000002 C20.8921162,15.9248679 25.816984,11 31.8921164,11 Z" id="Rectangle-Copy-2" fill="#444444"></path>
            </g>
            <path d="M132.66834,88.7249739 C128.776935,88.7249739 125.618489,85.5558437 125.618489,81.6433376 L125.618489,56.9589809 C125.618489,53.0464748 128.776935,49.8773447 132.66834,49.8773447 C136.563285,49.8773447 139.71819,53.0464748 139.71819,56.9589809 L139.71819,81.6433376 C139.71819,85.5558437 136.563285,88.7249739 132.66834,88.7249739 Z" id="Path" fill="#7C7C7C" fill-rule="nonzero" transform="translate(132.668339, 69.301159) scale(-1, 1) translate(-132.668339, -69.301159) "></path>
            <path d="M82.0415867,269.023925 C57.9849893,269.023925 38.4854772,249.436497 38.4854772,225.271436 L38.4854772,125.399383 C38.4854772,101.234323 57.9849893,81.6433376 82.0415867,81.6433376 L183.29155,81.6433376 C207.348148,81.6433376 226.84766,101.234323 226.84766,125.399383 L226.84766,225.271436 C226.84766,249.436497 207.348148,269.023925 183.29155,269.023925 L82.0415867,269.023925 Z" id="Path" fill="#10847C" fill-rule="nonzero" transform="translate(132.666569, 175.333631) scale(-1, 1) translate(-132.666569, -175.333631) "></path>
            <path d="M183.28801,269.023925 L105.855924,269.023925 C81.7993263,269.023925 62.2998141,249.436497 62.2998141,225.271436 L62.2998141,125.399383 C62.2998141,101.234323 81.7993263,81.6433376 105.855924,81.6433376 L183.28801,81.6433376 C207.344607,81.6433376 226.84766,101.234323 226.84766,125.399383 L226.84766,225.271436 C226.84766,249.436497 207.344607,269.023925 183.28801,269.023925 Z" id="Path" fill="#09B0A5" fill-rule="nonzero" transform="translate(144.573737, 175.333631) scale(-1, 1) translate(-144.573737, -175.333631) "></path>
            <g id="Group-2" transform="translate(109.958506, 0.000000)" fill-rule="nonzero">
                <path d="M45.6211392,33.9109241 C45.6211392,46.568949 35.4093011,56.8268286 22.8080918,56.8268286 C10.2118394,56.8268286 -4.61852778e-14,46.568949 -4.61852778e-14,33.9109241 C-4.61852778e-14,21.2578796 10.2118394,11 22.8080918,11 C35.4093011,11 45.6211392,21.2578796 45.6211392,33.9109241 Z" id="Path" fill="#FFCA5D" transform="translate(22.810570, 33.913414) scale(-1, 1) translate(-22.810570, -33.913414) "></path>
                <path d="M7.89186711,11 C5.1108753,11 2.45877267,11.5228528 -1.26121336e-13,12.4390906 C8.69989151,15.6708203 14.9112665,24.0514087 14.9112665,33.9109241 C14.9112665,43.7754199 8.69989151,52.1560071 -1.26121336e-13,55.3877368 C2.46372955,56.2989953 5.11583346,56.8268286 7.89186711,56.8268286 C20.4881195,56.8268286 30.7049145,46.568949 30.7049145,33.9109241 C30.7049145,21.2578796 20.4930764,11 7.89186711,11 Z" id="Path" fill-opacity="0.1" fill="#000000" transform="translate(15.352457, 33.913414) scale(-1, 1) translate(-15.352457, -33.913414) "></path>
            </g>
            <path d="M11.0000002,128.92766 L50.5809129,128.92766 L50.5809129,221.506383 L11.0000002,221.506383 C4.92486786,221.506383 2.02839144e-14,216.581515 1.95399252e-14,210.506383 L1.95399252e-14,139.92766 C1.87959361e-14,133.852527 4.92486786,128.92766 11.0000002,128.92766 Z" id="Rectangle" fill="#444444"></path>
            <path d="M28.5933612,128.92766 L50.5809129,128.92766 L50.5809129,221.506383 L28.5933612,221.506383 C22.5182289,221.506383 17.593361,216.581515 17.593361,210.506383 L17.593361,139.92766 C17.593361,133.852527 22.5182289,128.92766 28.5933612,128.92766 Z" id="Rectangle" fill="#525252"></path>
            <path d="M159.768068,168.288651 C158.094073,168.758465 155.976962,168.993372 153.269028,168.993372 C150.561095,168.993372 148.443983,168.758465 146.819223,168.288651 C145.243699,167.818837 144.11129,166.973173 143.421998,165.704676 C142.732706,164.48316 142.338825,163.402589 142.240354,162.462961 C142.141884,161.523334 142.043414,160.113893 142.043414,158.187657 C142.043414,156.26142 142.092649,154.851979 142.240354,153.912352 C142.338825,152.972725 142.781941,151.939134 143.421998,150.811582 C144.11129,149.637047 145.243699,148.838364 146.868459,148.36855 C148.542454,147.898737 150.659565,147.66383 153.367499,147.66383 C156.026197,147.66383 158.192544,147.898737 159.768068,148.36855 C161.343593,148.838364 162.476002,149.684029 163.165294,150.952526 C163.854586,152.174041 164.248467,153.254613 164.346938,154.19424 C164.494643,155.133868 164.543878,156.496327 164.543878,158.375582 C164.543878,160.254837 164.494643,161.664278 164.346938,162.556924 C164.248467,163.496551 163.805351,164.530141 163.165294,165.751657 C162.525237,166.973173 161.343593,167.818837 159.768068,168.288651 Z M128.602217,217.336731 C131.260915,219.310418 134.018084,220.250046 136.775252,220.250046 C139.532421,220.250046 142.289589,219.263437 145.095993,217.243238 C147.853162,215.270021 149.280981,212.310194 149.280981,208.363759 C149.280981,204.464306 147.951632,201.551461 145.342169,199.625225 C142.732706,197.698988 139.926302,196.759361 136.922958,196.759361 C133.919614,196.759361 131.11321,197.74597 128.503747,199.766169 C125.894284,201.786368 124.61417,204.699213 124.61417,208.551685 C124.564935,212.451139 125.894284,215.363983 128.602217,217.336731 Z M125.746578,168.288651 C124.121818,168.758465 121.955472,168.993372 119.247538,168.993372 C116.539605,168.993372 114.422493,168.758465 112.846968,168.288651 C111.222208,167.818837 110.0898,166.973173 109.449743,165.704676 C108.760451,164.48316 108.36657,163.402589 108.268099,162.462961 C108.120394,161.523334 108.071159,160.113893 108.120394,158.140675 C108.169629,156.167458 108.268099,154.804998 108.36657,153.959333 C108.46504,153.113669 108.858921,152.12706 109.498978,150.905544 C110.0898,149.73101 111.271444,148.885345 112.896204,148.36855 C114.520964,147.898737 116.68731,147.66383 119.395244,147.66383 C122.103177,147.66383 124.220289,147.898737 125.845049,148.36855 C127.420573,148.838364 128.552982,149.684029 129.242274,150.952526 C129.931566,152.174041 130.325447,153.254613 130.423918,154.19424 C130.522388,155.133868 130.620858,156.496327 130.620858,158.375582 C130.620858,160.254837 130.571623,161.664278 130.423918,162.556924 C130.325447,163.496551 129.931566,164.530141 129.242274,165.751657 C128.552982,166.973173 127.371338,167.818837 125.746578,168.288651 Z M112.846968,185.061 C119.887595,178.859459 127.96216,175.711707 137.021428,175.711707 C146.080696,175.711707 154.106026,178.812008 161.048182,185.014019 C168.039574,191.215559 171.53527,199.061448 171.53527,208.645178 C171.53527,215.270021 169.713569,221.142692 166.119403,226.310643 C162.525237,231.478593 158.094073,235.237103 152.924382,237.680134 C147.754691,240.122695 142.437295,241.344681 136.873723,241.344681 C131.359386,241.344681 125.943519,240.029203 120.773828,237.445227 C115.554902,234.861252 111.172973,231.00878 107.628042,225.934792 C104.033876,220.860334 102.261411,215.129077 102.261411,208.73961 C102.261411,199.155411 105.806342,191.262071 112.846968,185.061 Z M159.607103,112.349823 C163.160874,114.645922 164.937759,116.850177 164.937759,118.962589 C164.937759,120.248404 164.542896,121.488298 163.753169,122.68227 C162.963442,123.876241 162.420505,124.702837 162.124357,125.207979 C161.82821,125.713121 161.137198,126.63156 160.051324,127.871454 C158.965449,129.15727 157.731501,130.305319 156.349479,131.315603 C152.598276,133.887234 148.748357,135.17305 144.898439,135.17305 C141.04852,135.17305 137.988328,134.576064 135.767221,133.382092 C133.546114,132.188121 131.71987,130.994149 130.28849,129.800177 C128.85711,128.606206 127.67252,128.00922 126.784077,128.00922 C125.402055,128.00922 124.118749,128.560284 122.934158,129.662411 C120.663693,133.33617 118.541302,135.17305 116.616343,135.17305 C114.691384,135.17305 112.371561,134.070922 109.656874,131.866667 C106.942188,129.662411 105.560166,127.871454 105.560166,126.447872 C105.560166,125.024291 105.955029,123.692553 106.744756,122.498582 C107.534483,121.30461 108.077421,120.478014 108.373568,119.972872 C108.669716,119.46773 109.410085,118.595213 110.545317,117.355319 C111.68055,116.115426 112.963856,115.013298 114.345878,113.957092 C117.998365,111.477305 121.798926,110.237411 125.796918,110.237411 C129.794911,110.237411 132.805745,110.834397 134.977494,111.936525 C137.149243,113.084574 138.926129,114.232624 140.308151,115.380674 C141.690173,116.528723 142.825405,117.079787 143.713848,117.079787 C145.293302,117.079787 146.576608,116.528723 147.563767,115.426596 C149.6368,111.936525 151.857907,110.191489 154.227088,110.191489 C155.707826,110.283333 157.534069,110.972163 159.607103,112.349823 Z" id="logo-lingbe" fill-opacity="0.8" fill="#10847C"></path>
            <path d="M168.564749,168.288651 C166.890754,168.758465 164.773642,168.993372 162.065709,168.993372 C159.357775,168.993372 157.240664,168.758465 155.615904,168.288651 C154.040379,167.818837 152.907971,166.973173 152.218678,165.704676 C151.529386,164.48316 151.135505,163.402589 151.037035,162.462961 C150.938564,161.523334 150.840094,160.113893 150.840094,158.187657 C150.840094,156.26142 150.889329,154.851979 151.037035,153.912352 C151.135505,152.972725 151.578621,151.939134 152.218678,150.811582 C152.907971,149.637047 154.040379,148.838364 155.665139,148.36855 C157.339134,147.898737 159.456246,147.66383 162.164179,147.66383 C164.822877,147.66383 166.989224,147.898737 168.564749,148.36855 C170.140274,148.838364 171.272682,149.684029 171.961974,150.952526 C172.651266,152.174041 173.045148,153.254613 173.143618,154.19424 C173.291323,155.133868 173.340559,156.496327 173.340559,158.375582 C173.340559,160.254837 173.291323,161.664278 173.143618,162.556924 C173.045148,163.496551 172.602031,164.530141 171.961974,165.751657 C171.321917,166.973173 170.140274,167.818837 168.564749,168.288651 Z M137.398898,217.336731 C140.057596,219.310418 142.814764,220.250046 145.571933,220.250046 C148.329101,220.250046 151.08627,219.263437 153.892674,217.243238 C156.649842,215.270021 158.077661,212.310194 158.077661,208.363759 C158.077661,204.464306 156.748312,201.551461 154.138849,199.625225 C151.529386,197.698988 148.722983,196.759361 145.719638,196.759361 C142.716294,196.759361 139.90989,197.74597 137.300427,199.766169 C134.690964,201.786368 133.41085,204.699213 133.41085,208.551685 C133.361615,212.451139 134.690964,215.363983 137.398898,217.336731 Z M134.543259,168.288651 C132.918499,168.758465 130.752152,168.993372 128.044219,168.993372 C125.336285,168.993372 123.219174,168.758465 121.643649,168.288651 C120.018889,167.818837 118.88648,166.973173 118.246423,165.704676 C117.557131,164.48316 117.16325,163.402589 117.06478,162.462961 C116.917074,161.523334 116.867839,160.113893 116.917074,158.140675 C116.96631,156.167458 117.06478,154.804998 117.16325,153.959333 C117.26172,153.113669 117.655602,152.12706 118.295659,150.905544 C118.88648,149.73101 120.068124,148.885345 121.692884,148.36855 C123.317644,147.898737 125.483991,147.66383 128.191924,147.66383 C130.899858,147.66383 133.016969,147.898737 134.641729,148.36855 C136.217254,148.838364 137.349662,149.684029 138.038955,150.952526 C138.728247,152.174041 139.122128,153.254613 139.220598,154.19424 C139.319069,155.133868 139.417539,156.496327 139.417539,158.375582 C139.417539,160.254837 139.368304,161.664278 139.220598,162.556924 C139.122128,163.496551 138.728247,164.530141 138.038955,165.751657 C137.349662,166.973173 136.168019,167.818837 134.543259,168.288651 Z M121.643649,185.061 C128.684276,178.859459 136.758841,175.711707 145.818109,175.711707 C154.877377,175.711707 162.902706,178.812008 169.844863,185.014019 C176.836254,191.215559 180.33195,199.061448 180.33195,208.645178 C180.33195,215.270021 178.51025,221.142692 174.916083,226.310643 C171.321917,231.478593 166.890754,235.237103 161.721063,237.680134 C156.551372,240.122695 151.233975,241.344681 145.670403,241.344681 C140.156066,241.344681 134.740199,240.029203 129.570508,237.445227 C124.351582,234.861252 119.969654,231.00878 116.424723,225.934792 C112.830557,220.860334 111.058091,215.129077 111.058091,208.73961 C111.058091,199.155411 114.603022,191.262071 121.643649,185.061 Z M168.403783,112.349823 C171.957554,114.645922 173.73444,116.850177 173.73444,118.962589 C173.73444,120.248404 173.339576,121.488298 172.549849,122.68227 C171.760123,123.876241 171.217185,124.702837 170.921038,125.207979 C170.62489,125.713121 169.933879,126.63156 168.848004,127.871454 C167.76213,129.15727 166.528182,130.305319 165.146159,131.315603 C161.394957,133.887234 157.545038,135.17305 153.695119,135.17305 C149.8452,135.17305 146.785008,134.576064 144.563901,133.382092 C142.342794,132.188121 140.516551,130.994149 139.085171,129.800177 C137.653791,128.606206 136.4692,128.00922 135.580758,128.00922 C134.198736,128.00922 132.915429,128.560284 131.730839,129.662411 C129.460374,133.33617 127.337983,135.17305 125.413023,135.17305 C123.488064,135.17305 121.168241,134.070922 118.453555,131.866667 C115.738869,129.662411 114.356846,127.871454 114.356846,126.447872 C114.356846,125.024291 114.75171,123.692553 115.541437,122.498582 C116.331164,121.30461 116.874101,120.478014 117.170249,119.972872 C117.466396,119.46773 118.206765,118.595213 119.341998,117.355319 C120.47723,116.115426 121.760536,115.013298 123.142559,113.957092 C126.795046,111.477305 130.595606,110.237411 134.593599,110.237411 C138.591592,110.237411 141.602425,110.834397 143.774175,111.936525 C145.945924,113.084574 147.722809,114.232624 149.104831,115.380674 C150.486853,116.528723 151.622086,117.079787 152.510529,117.079787 C154.089983,117.079787 155.373289,116.528723 156.360447,115.426596 C158.433481,111.936525 160.654588,110.191489 163.023768,110.191489 C164.504506,110.283333 166.33075,110.972163 168.403783,112.349823 Z" id="logo-lingbe" fill="#CAF6DC"></path>
        </g>
    </g>
</svg>